<?xml version="1.0" encoding="iso-8859-1"?>
<!-- Generator: Adobe Illustrator 19.0.0, SVG Export Plug-In . SVG Version: 6.00 Build 0)  -->
<svg version="1.1" id="Capa_1" xmlns="http://www.w3.org/2000/svg" xmlns:xlink="http://www.w3.org/1999/xlink" x="0px" y="0px"
	 viewBox="0 0 480 480" style="enable-background:new 0 0 480 480;" xml:space="preserve">
<g>
	<g>
		<path d="M376,0H104C81.92,0.026,64.026,17.92,64,40v400c0.026,22.08,17.92,39.974,40,40h272c22.08-0.026,39.974-17.92,40-40V40
			C415.974,17.92,398.08,0.026,376,0z M400,440c0,13.255-10.745,24-24,24H104c-13.255,0-24-10.745-24-24V40
			c0-13.255,10.745-24,24-24h272c13.255,0,24,10.745,24,24V440z"/>
	</g>
</g>
<g>
	<g>
		<path d="M88,64v336h304V64H88z M376,384H104V80h272V384z"/>
	</g>
</g>
<g>
	<g>
		<path d="M240,408c-13.255,0-24,10.745-24,24s10.745,24,24,24s24-10.745,24-24S253.255,408,240,408z M240,440c-4.418,0-8-3.582-8-8
			s3.582-8,8-8s8,3.582,8,8S244.418,440,240,440z"/>
	</g>
</g>
<g>
	<g>
		<circle cx="240" cy="40" r="16"/>
	</g>
</g>
<g>
</g>
<g>
</g>
<g>
</g>
<g>
</g>
<g>
</g>
<g>
</g>
<g>
</g>
<g>
</g>
<g>
</g>
<g>
</g>
<g>
</g>
<g>
</g>
<g>
</g>
<g>
</g>
<g>
</g>
</svg>
